<svg width="307" height="243" viewBox="0 0 307 243" fill="none" xmlns="http://www.w3.org/2000/svg">
<g clip-path="url(#clip0_1_11)">
<path d="M0 230L97 35C135.336 49.4546 167.792 51.9287 193.723 48.361C295.663 -53.5298 285.997 35.666 193.723 48.361C187.559 54.5223 180.987 61.3822 174 69C58.5927 194.831 186.59 235.716 280.665 242.122L301 243C294.486 242.885 287.67 242.599 280.665 242.122L0 230Z" fill="#FC6969"/>
<path d="M0 230L97 35C280 104 329 -100 174 69C50 204.2 207 241.333 301 243L0 230Z" stroke="#660000" stroke-width="3"/>
<path d="M97 35C96.6667 91.8333 101.2 211.5 122 235.5" stroke="#340909" stroke-width="3"/>
<path d="M51 128C83 152.667 145.1 208.7 137.5 235.5" stroke="#340909" stroke-width="3"/>
<path d="M35 161C53.6667 169.333 93.9 195.7 105.5 234.5" stroke="#340909" stroke-width="3"/>
<path d="M60.5 110C80.8333 112.5 122.8 123.7 128 148.5" stroke="#340909" stroke-width="3"/>
<path d="M96 35.5C116.833 49.6667 156.8 81.8 150 97" stroke="#340909" stroke-width="3"/>
<path d="M73.5 81C91.6667 86.6667 130 102.1 138 118.5" stroke="#340909" stroke-width="3"/>
<path d="M27 231C57.1667 201.5 119.5 145.2 127.5 156" stroke="#340909" stroke-width="3"/>
</g>
<defs>
<clipPath id="clip0_1_11">
<rect width="307" height="243" fill="white"/>
</clipPath>
</defs>
</svg>
